HIERARCHY
ROOT Root
{
  OFFSET 0.0 0.0 0.0
  CHANNELS 6 Xposition Yposition Zposition Zrotation Yrotation Xrotation
  JOINT Hips
  {
    OFFSET 0.0 100.0 0.0
    CHANNELS 6 Xposition Yposition Zposition Zrotation Yrotation Xrotation
    JOINT Spine1
    {
      OFFSET -0.013727 5.003763 -0.053727
      CHANNELS 3 Zrotation Yrotation Xrotation
      JOINT Spine2
      {
        OFFSET -0.0 7.125301 -0.029825
        CHANNELS 3 Zrotation Yrotation Xrotation
        JOINT Chest
        {
          OFFSET -1e-06 7.550063 -0.815971
          CHANNELS 3 Zrotation Yrotation Xrotation
          JOINT Neck1
          {
            OFFSET -0.181677 26.311295 -0.553348
            CHANNELS 3 Zrotation Yrotation Xrotation
            JOINT Neck2
            {
              OFFSET -3e-06 7.709397 2.302585
              CHANNELS 3 Zrotation Yrotation Xrotation
              JOINT Head
              {
                OFFSET -5e-06 6.128916 1.953709
                CHANNELS 3 Zrotation Yrotation Xrotation
                JOINT HeadEnd
                {
                  OFFSET 0.003598 16.065403 -1.835379
                  CHANNELS 3 Zrotation Yrotation Xrotation
                }
                JOINT Jaw
                {
                  OFFSET 0.002637 0.475592 3.094941
                  CHANNELS 3 Zrotation Yrotation Xrotation
                }
                JOINT LeftEye
                {
                  OFFSET 3.206381 5.380205 7.586883
                  CHANNELS 3 Zrotation Yrotation Xrotation
                }
                JOINT RightEye
                {
                  OFFSET -3.22244 5.361869 7.558234
                  CHANNELS 3 Zrotation Yrotation Xrotation
                }
              }
            }
          }
          JOINT LeftShoulder
          {
            OFFSET 1.621652 23.237164 5.113413
            CHANNELS 3 Zrotation Yrotation Xrotation
            JOINT LeftArm
            {
              OFFSET 14.919846 2e-06 -5.502326
              CHANNELS 3 Zrotation Yrotation Xrotation
              JOINT LeftForeArm
              {
                OFFSET 28.739307 0.0 -0.002588
                CHANNELS 3 Zrotation Yrotation Xrotation
                JOINT LeftHand
                {
                  OFFSET 27.093981 -1e-06 0.002609
                  CHANNELS 3 Zrotation Yrotation Xrotation
                  JOINT LeftHandThumb1
                  {
                    OFFSET 2.276482 -1.392045 3.191413
                    CHANNELS 3 Zrotation Yrotation Xrotation
                    JOINT LeftHandThumb2
                    {
                      OFFSET 4.012836 -1.828127 1.641654
                      CHANNELS 3 Zrotation Yrotation Xrotation
                      JOINT LeftHandThumb3
                      {
                        OFFSET 2.798515 0.0 -3e-06
                        CHANNELS 3 Zrotation Yrotation Xrotation
                        JOINT LeftHandThumbEnd
                        {
                          OFFSET 3.180793 -4e-06 4e-06
                          CHANNELS 3 Zrotation Yrotation Xrotation
                        }
                      }
                    }
                  }
                  JOINT LeftHandIndex1
                  {
                    OFFSET 3.247555 -0.531998 2.296169
                    CHANNELS 3 Zrotation Yrotation Xrotation
                    JOINT LeftHandIndex2
                    {
                      OFFSET 6.364578 0.01206 0.1786
                      CHANNELS 3 Zrotation Yrotation Xrotation
                      JOINT LeftHandIndex3
                      {
                        OFFSET 3.662364 0.0 0.0
                        CHANNELS 3 Zrotation Yrotation Xrotation
                        JOINT LeftHandIndex4
                        {
                          OFFSET 2.329242 4e-06 4e-06
                          CHANNELS 3 Zrotation Yrotation Xrotation
                          JOINT LeftHandIndexEnd
                          {
                            OFFSET 2.759615 -0.180537 -0.113024
                            CHANNELS 3 Zrotation Yrotation Xrotation
                          }
                        }
                      }
                    }
                  }
                  JOINT LeftHandMiddle1
                  {
                    OFFSET 3.163495 0.240981 1.000332
                    CHANNELS 3 Zrotation Yrotation Xrotation
                    JOINT LeftHandMiddle2
                    {
                      OFFSET 6.19078 -0.259278 -1.002548
                      CHANNELS 3 Zrotation Yrotation Xrotation
                      JOINT LeftHandMiddle3
                      {
                        OFFSET 4.35652 -4e-06 -1e-06
                        CHANNELS 3 Zrotation Yrotation Xrotation
                        JOINT LeftHandMiddle4
                        {
                          OFFSET 2.996877 -8e-06 0.0
                          CHANNELS 3 Zrotation Yrotation Xrotation
                          JOINT LeftHandMiddleEnd
                          {
                            OFFSET 2.304287 -0.294569 -0.031741
                            CHANNELS 3 Zrotation Yrotation Xrotation
                          }
                        }
                      }
                    }
                  }
                  JOINT LeftHandRing1
                  {
                    OFFSET 2.882643 -0.053652 -0.322543
                    CHANNELS 3 Zrotation Yrotation Xrotation
                    JOINT LeftHandRing2
                    {
                      OFFSET 5.854541 -0.486202 -1.373841
                      CHANNELS 3 Zrotation Yrotation Xrotation
                      JOINT LeftHandRing3
                      {
                        OFFSET 4.350578 0.0 3e-06
                        CHANNELS 3 Zrotation Yrotation Xrotation
                        JOINT LeftHandRing4
                        {
                          OFFSET 2.651321 7e-06 2e-06
                          CHANNELS 3 Zrotation Yrotation Xrotation
                          JOINT LeftHandRingEnd
                          {
                            OFFSET 1.936105 0.077687 -7.1e-05
                            CHANNELS 3 Zrotation Yrotation Xrotation
                          }
                        }
                      }
                    }
                  }
                  JOINT LeftHandPinky1
                  {
                    OFFSET 2.8655 -0.310005 -1.600378
                    CHANNELS 3 Zrotation Yrotation Xrotation
                    JOINT LeftHandPinky2
                    {
                      OFFSET 5.087849 -1.331141 -1.77123
                      CHANNELS 3 Zrotation Yrotation Xrotation
                      JOINT LeftHandPinky3
                      {
                        OFFSET 3.070974 4e-06 0.0
                        CHANNELS 3 Zrotation Yrotation Xrotation
                        JOINT LeftHandPinky4
                        {
                          OFFSET 1.549672 0.0 1e-06
                          CHANNELS 3 Zrotation Yrotation Xrotation
                          JOINT LeftHandPinkyEnd
                          {
                            OFFSET 1.944893 -0.157802 0.057219
                            CHANNELS 3 Zrotation Yrotation Xrotation
                          }
                        }
                      }
                    }
                  }
                }
              }
            }
          }
          JOINT RightShoulder
          {
            OFFSET -1.380118 23.180309 5.214158
            CHANNELS 3 Zrotation Yrotation Xrotation
            JOINT RightArm
            {
              OFFSET -15.037196 1.2e-05 -5.545604
              CHANNELS 3 Zrotation Yrotation Xrotation
              JOINT RightForeArm
              {
                OFFSET -28.736639 2e-06 -0.002597
                CHANNELS 3 Zrotation Yrotation Xrotation
                JOINT RightHand
                {
                  OFFSET -27.133619 -0.0 0.002613
                  CHANNELS 3 Zrotation Yrotation Xrotation
                  JOINT RightHandThumb1
                  {
                    OFFSET -2.274032 -1.383988 3.163127
                    CHANNELS 3 Zrotation Yrotation Xrotation
                    JOINT RightHandThumb2
                    {
                      OFFSET -4.011429 -1.827466 1.640914
                      CHANNELS 3 Zrotation Yrotation Xrotation
                      JOINT RightHandThumb3
                      {
                        OFFSET -2.794935 -4e-06 -3e-06
                        CHANNELS 3 Zrotation Yrotation Xrotation
                        JOINT RightHandThumbEnd
                        {
                          OFFSET -3.183852 4e-06 1e-06
                          CHANNELS 3 Zrotation Yrotation Xrotation
                        }
                      }
                    }
                  }
                  JOINT RightHandIndex1
                  {
                    OFFSET -3.253266 -0.520057 2.282866
                    CHANNELS 3 Zrotation Yrotation Xrotation
                    JOINT RightHandIndex2
                    {
                      OFFSET -6.341917 0.012471 0.178266
                      CHANNELS 3 Zrotation Yrotation Xrotation
                      JOINT RightHandIndex3
                      {
                        OFFSET -3.654871 -8e-06 -0.0
                        CHANNELS 3 Zrotation Yrotation Xrotation
                        JOINT RightHandIndex4
                        {
                          OFFSET -2.327586 0.0 1e-06
                          CHANNELS 3 Zrotation Yrotation Xrotation
                          JOINT RightHandIndexEnd
                          {
                            OFFSET -2.76179 -0.180656 -0.113078
                            CHANNELS 3 Zrotation Yrotation Xrotation
                          }
                        }
                      }
                    }
                  }
                  JOINT RightHandMiddle1
                  {
                    OFFSET -3.168106 0.246593 1.00103
                    CHANNELS 3 Zrotation Yrotation Xrotation
                    JOINT RightHandMiddle2
                    {
                      OFFSET -6.180828 -0.258836 -1.000895
                      CHANNELS 3 Zrotation Yrotation Xrotation
                      JOINT RightHandMiddle3
                      {
                        OFFSET -4.348901 0.0 -0.0
                        CHANNELS 3 Zrotation Yrotation Xrotation
                        JOINT RightHandMiddle4
                        {
                          OFFSET -3.00024 -4e-06 -2e-06
                          CHANNELS 3 Zrotation Yrotation Xrotation
                          JOINT RightHandMiddleEnd
                          {
                            OFFSET -2.30252 -0.29437 -0.031706
                            CHANNELS 3 Zrotation Yrotation Xrotation
                          }
                        }
                      }
                    }
                  }
                  JOINT RightHandRing1
                  {
                    OFFSET -2.88569 -0.067952 -0.308858
                    CHANNELS 3 Zrotation Yrotation Xrotation
                    JOINT RightHandRing2
                    {
                      OFFSET -5.854198 -0.48613 -1.373731
                      CHANNELS 3 Zrotation Yrotation Xrotation
                      JOINT RightHandRing3
                      {
                        OFFSET -4.33881 -4e-06 -0.0
                        CHANNELS 3 Zrotation Yrotation Xrotation
                        JOINT RightHandRing4
                        {
                          OFFSET -2.654903 -4e-06 4e-06
                          CHANNELS 3 Zrotation Yrotation Xrotation
                          JOINT RightHandRingEnd
                          {
                            OFFSET -1.933568 0.077527 -5.2e-05
                            CHANNELS 3 Zrotation Yrotation Xrotation
                          }
                        }
                      }
                    }
                  }
                  JOINT RightHandPinky1
                  {
                    OFFSET -2.866425 -0.342796 -1.584145
                    CHANNELS 3 Zrotation Yrotation Xrotation
                    JOINT RightHandPinky2
                    {
                      OFFSET -5.091371 -1.332055 -1.772385
                      CHANNELS 3 Zrotation Yrotation Xrotation
                      JOINT RightHandPinky3
                      {
                        OFFSET -3.062664 -4e-06 1e-06
                        CHANNELS 3 Zrotation Yrotation Xrotation
                        JOINT RightHandPinky4
                        {
                          OFFSET -1.546529 4e-06 -2e-06
                          CHANNELS 3 Zrotation Yrotation Xrotation
                          JOINT RightHandPinkyEnd
                          {
                            OFFSET -1.945119 -0.157718 0.057211
                            CHANNELS 3 Zrotation Yrotation Xrotation
                          }
                        }
                      }
                    }
                  }
                }
              }
            }
          }
        }
      }
    }
    JOINT LeftLeg
    {
      OFFSET 10.043214 -8.434526 2.595655
      CHANNELS 3 Zrotation Yrotation Xrotation
      JOINT LeftShin
      {
        OFFSET -1e-06 -43.221752 -0.802913
        CHANNELS 3 Zrotation Yrotation Xrotation
        JOINT LeftFoot
        {
          OFFSET 1e-06 -42.155094 -3.481523
          CHANNELS 3 Zrotation Yrotation Xrotation
          JOINT LeftToeBase
          {
            OFFSET 0.0 -5.059472 13.231529
            CHANNELS 3 Zrotation Yrotation Xrotation
            JOINT LeftToeEnd
            {
              OFFSET -0.009607 -1.647619 6.513017
              CHANNELS 3 Zrotation Yrotation Xrotation
            }
          }
        }
      }
    }
    JOINT RightLeg
    {
      OFFSET -10.047278 -8.29526 2.620317
      CHANNELS 3 Zrotation Yrotation Xrotation
      JOINT RightShin
      {
        OFFSET 1e-06 -43.362206 -0.805556
        CHANNELS 3 Zrotation Yrotation Xrotation
        JOINT RightFoot
        {
          OFFSET 2e-06 -42.117393 -3.478398
          CHANNELS 3 Zrotation Yrotation Xrotation
          JOINT RightToeBase
          {
            OFFSET -0.0 -5.079609 13.284196
            CHANNELS 3 Zrotation Yrotation Xrotation
            JOINT RightToeEnd
            {
              OFFSET 0.009532 -1.634378 6.460591
              CHANNELS 3 Zrotation Yrotation Xrotation
            }
          }
        }
      }
    }
  }
}
MOTION
Frames: 4
Frame Time: 0.03333333333333333
-0.201033 0.0 0.075823 0.0 0.315302 0.0 0.0 100.06424 0.0 -0.146549 -0.012421 -5.386693 0.08873 0.113405 -3.674629 -0.391631 -0.095785 -6.237026 0.281404 -1.876796 13.069645 0.92897 2.26117 15.711387 -0.261774 0.848853 -3.872272 0.769576 0.602896 -10.158533 -0.000841 0.001118 5.8e-05 -0.003199 0.067184 0.074088 0.637096 -3.683274 -10.611585 -0.646538 3.824105 -10.600754 -27.782612 -2.188734 14.406939 -45.211494 -5.791603 18.477345 0.043246 -25.535778 0.042832 -4.585852 -2.008593 -5.360065 -5.892906 9.861025 0.741938 -10.949669 -0.396482 7.143523 0.002766 8.761699 0.011048 -16.257156 18.262062 6.095221 -1.83841 2.487038 -2.507445 -10.15732 4.662892 4.634153 -20.948242 -0.007494 -0.00462 -21.205854 2.440593 -3.545307 0.005993 0.003166 -0.007656 -1.355163 2.206646 -0.740546 -21.322775 0.601004 3.009018 -13.822681 -0.009935 0.015573 -23.894699 -0.265286 -0.83485 -60.286331 2.641915 -1.141147 -0.285641 1.642023 0.83067 -14.2169 0.121823 1.323649 -34.187965 -0.292888 0.961088 -20.040138 0.95751 1.228551 0.004351 -0.005827 -3.2e-05 -3.42193 0.736347 0.526071 -15.93832 -3.134491 2.985452 -6.332457 -0.000802 -0.009483 -18.103176 3.642878 -4.862151 0.00783 0.005168 -0.019501 28.512533 7.720386 16.378706 46.242302 4.85493 18.507578 0.172908 25.75828 0.012469 1.227665 3.920115 -4.979323 2.233805 -5.286538 -3.188034 14.27968 -0.813409 6.935697 -0.017851 -12.670372 0.013297 16.157867 -17.727026 2.435922 1.663577 -1.961449 -2.869527 4.718412 -4.146657 4.985831 10.99822 0.008558 -0.006904 12.07927 -3.712858 -2.833903 -0.000844 0.00356 -0.010503 1.273373 -1.904982 -1.494589 14.786045 0.554357 3.858435 14.214457 -1.342178 -6.643889 19.557589 0.155442 -0.630652 49.796642 -0.757251 -6.581065 0.340774 -1.49073 -0.032978 20.207087 3.673356 2.303547 18.751469 0.010551 0.012616 10.741903 -0.47762 1.403695 0.007382 -0.007057 -0.00733 3.24042 0.347576 -0.582822 21.508394 11.798883 2.247958 8.163245 0.018096 0.009626 18.338982 -3.78157 -4.916852 0.005196 0.002842 0.016595 2.617259 2.714949 5.46466 -0.034568 -0.208306 4.672365 -2.27196 0.993271 -4.962591 1.637581 -2.066277 -0.280371 0.000855 0.000829 0.006623 -2.179086 -1.321791 5.749705 -0.018875 0.037187 3.851795 4.764986 0.785736 -4.408091 -1.444898 0.989425 0.044555 -0.000633 -0.000118 0.002085 
-0.181668 0.0 0.046484 0.0 0.296606 0.0 0.0 100.072266 0.0 -0.158888 -0.013653 -5.380347 0.085002 0.115894 -3.664864 -0.397052 -0.109003 -6.223137 0.289524 -1.870921 13.081275 0.92409 2.266068 15.781944 -0.237882 0.843798 -3.864092 0.741958 0.632462 -10.303679 -0.001239 0.000186 -0.001689 -0.004689 0.06356 0.077678 0.635321 -3.685474 -10.599433 -0.644476 3.817981 -10.585075 -27.661009 -2.337346 14.445995 -45.296299 -5.812533 18.538008 0.047925 -25.61483 0.022443 -4.578924 -1.980068 -5.307745 -5.864278 9.821096 0.74907 -10.952111 -0.377927 7.141939 -0.007427 8.780966 0.008316 -16.306458 18.336218 6.063422 -1.850541 2.516008 -2.496189 -10.169239 4.695332 4.607392 -20.99107 0.012951 -0.014069 -21.227459 2.486166 -3.626433 -1.1e-05 -0.002467 0.002466 -1.37562 2.263188 -0.732113 -21.321592 0.590531 3.005734 -13.8112 0.019439 -0.013726 -23.868004 -0.236406 -0.8494 -60.200504 2.573564 -1.186764 -0.308335 1.706194 0.829695 -14.207971 0.091138 1.310828 -34.216892 -0.256279 0.929467 -20.029533 0.975966 1.225123 0.004843 0.003814 0.005067 -3.456074 0.827878 0.50119 -15.917197 -3.186226 3.026289 -6.330078 0.003066 -0.019113 -18.141605 3.652451 -4.91608 0.00057 0.000226 -0.002262 28.368568 7.720994 16.528391 46.402843 4.851982 18.500231 0.157446 25.804792 0.035782 1.246338 3.915212 -4.989171 2.206594 -5.217495 -3.213801 14.292013 -0.82055 6.911891 0.014011 -12.69169 -0.000281 16.229698 -17.780083 2.399457 1.66681 -1.946215 -2.865214 4.734946 -4.190856 5.004649 11.018604 -0.011469 -0.010025 12.133032 -3.746664 -2.856536 -0.002468 0.005805 -0.011863 1.300159 -1.938419 -1.488537 14.794521 0.560463 3.877545 14.241769 -1.373151 -6.675164 19.635969 0.117727 -0.658691 49.915154 -0.72235 -6.675884 0.3724 -1.537686 -0.027717 20.207104 3.688436 2.329415 18.783335 -0.015009 -0.018858 10.737138 -0.495032 1.369168 -0.001607 0.004476 0.006125 3.288132 0.262619 -0.583371 21.471581 11.858134 2.304256 8.141139 -0.009174 -0.008161 18.380095 -3.814192 -4.960976 0.010211 0.000231 0.001075 2.623462 2.709429 5.458777 -0.038406 -0.213674 4.614371 -2.257396 1.01829 -4.900227 1.637165 -2.066711 -0.287022 -0.000281 -0.000331 -0.000375 -2.160166 -1.317637 5.767069 -0.01535 0.030769 3.729101 4.768951 0.768741 -4.203447 -1.442149 0.990112 0.007504 -0.0004 -0.000185 0.005691 
-0.176644 0.0 0.032242 0.0 0.263911 0.0 0.0 100.085213 0.0 -0.168019 -0.014646 -5.375714 0.082538 0.117401 -3.642131 -0.398902 -0.109142 -6.212237 0.293476 -1.870081 13.075258 0.919477 2.287758 15.779037 -0.225058 0.838648 -3.864574 0.723053 0.664909 -10.333684 0.000454 0.001378 3.4e-05 -0.001243 0.065831 0.075913 0.635692 -3.684558 -10.597706 -0.640161 3.821744 -10.590404 -27.588818 -2.408193 14.454368 -45.294781 -5.810445 18.458836 0.0082 -25.618618 0.027619 -4.605364 -1.964017 -5.254759 -5.869483 9.831887 0.805694 -10.945803 -0.364632 7.189423 -0.010288 8.780471 -0.0005 -16.313314 18.36101 6.107888 -1.843462 2.50318 -2.528058 -10.170071 4.700067 4.639007 -20.98567 0.018291 -0.027725 -21.245628 2.495534 -3.598877 0.009169 0.003995 -0.002268 -1.369411 2.253241 -0.762765 -21.325024 0.603286 3.01443 -13.820447 0.009195 -0.001407 -23.903154 -0.233391 -0.849912 -60.305325 2.556495 -1.194988 -0.309697 1.704673 0.817339 -14.202522 0.097283 1.324715 -34.216019 -0.248358 0.925914 -20.026937 1.005275 1.200477 -0.008838 -0.006329 0.006352 -3.460819 0.833391 0.489717 -15.906833 -3.195329 3.006873 -6.340014 0.007081 -0.005487 -18.1029 3.69089 -4.896357 0.003903 -0.005703 -0.000577 28.332855 7.713934 16.522665 46.441826 4.826399 18.417181 0.185751 25.750126 0.028942 1.274249 3.914657 -4.98238 2.208662 -5.256412 -3.186668 14.281003 -0.824231 6.930275 0.00695 -12.690949 0.016146 16.213133 -17.765596 2.406192 1.665312 -1.960085 -2.852782 4.728722 -4.165241 4.977099 11.012982 -0.009457 -0.003829 12.09354 -3.734795 -2.868737 0.007417 0.008626 -0.002423 1.293041 -1.924061 -1.479929 14.810539 0.562312 3.852401 14.247996 -1.354128 -6.660412 19.651848 0.153947 -0.660905 49.968643 -0.768482 -6.633762 0.358312 -1.513598 -0.009721 20.210203 3.68036 2.309458 18.783655 0.00132 -0.019765 10.732805 -0.4898 1.398767 0.001583 -0.004454 -0.006103 3.278639 0.299835 -0.584175 21.475576 11.800997 2.279365 8.167027 -0.001296 -0.012455 18.37796 -3.793181 -4.935383 -0.00093 -0.002929 0.001294 2.635057 2.707828 5.52566 -0.04267 -0.217364 4.429592 -2.260613 1.050861 -4.820421 1.635434 -2.06403 -0.312119 0.000582 0.000283 0.006835 -2.155256 -1.308378 5.828178 -0.008762 0.022616 3.535101 4.776049 0.756806 -4.159154 -1.443243 0.989893 -0.011561 0.000233 -8.9e-05 0.002329 
-0.166594 0.0 -0.001102 0.0 0.238647 0.0 0.0 100.087059 0.0 -0.172496 -0.015157 -5.367609 0.078403 0.117473 -3.615884 -0.396079 -0.109194 -6.189183 0.294351 -1.871197 13.044204 0.916871 2.30088 15.734435 -0.225385 0.840049 -3.845716 0.719217 0.694449 -10.355699 0.001422 0.000618 -3e-05 -0.002219 0.06572 0.07592 0.636314 -3.684278 -10.592464 -0.644855 3.818255 -10.585062 -27.540882 -2.459485 14.461734 -45.323467 -5.846368 18.494976 -0.019509 -25.628164 0.060752 -4.616403 -1.970769 -5.306342 -5.885056 9.811795 0.813575 -10.949488 -0.346541 7.162386 -0.009925 8.789288 -0.004043 -16.348436 18.380663 6.089858 -1.833902 2.494774 -2.509889 -10.181422 4.694196 4.630745 -21.019615 0.002612 -0.013465 -21.250109 2.478447 -3.598651 -0.013754 0.005764 0.00411 -1.366398 2.260369 -0.755963 -21.344194 0.587937 3.02684 -13.827855 0.008411 -0.014766 -23.917517 -0.229548 -0.846108 -60.31044 2.565499 -1.183435 -0.297782 1.697291 0.825344 -14.213978 0.093997 1.306087 -34.257141 -0.265007 0.950833 -20.035204 0.996411 1.227087 0.001104 -0.013085 -0.011058 -3.466429 0.824804 0.490387 -15.913116 -3.180473 3.014058 -6.341822 0.017485 0.008053 -18.143467 3.652893 -4.926178 -0.00988 0.003418 0.007988 28.272253 7.730744 16.559853 46.526131 4.790334 18.433226 0.18978 25.724083 0.036387 1.290208 3.940059 -4.990228 2.207634 -5.181365 -3.087008 14.270847 -0.846405 6.982185 0.012122 -12.690103 -0.009722 16.258945 -17.793217 2.403498 1.665204 -1.95798 -2.892091 4.743019 -4.182457 4.991151 11.031526 -0.006992 -0.010088 12.12276 -3.757829 -2.864215 0.005357 0.002094 -0.000358 1.295576 -1.940702 -1.515027 14.807014 0.571383 3.882738 14.248594 -1.344152 -6.674553 19.602247 0.135503 -0.650703 49.879768 -0.750081 -6.608578 0.367048 -1.541183 -0.045236 20.222521 3.694869 2.326735 18.798761 0.005502 -0.022031 10.756323 -0.47987 1.402724 0.00469 0.005291 -0.003662 3.298135 0.267246 -0.625796 21.49412 11.858148 2.287475 8.184593 -0.018465 0.00412 18.434731 -3.788587 -4.959591 -0.001081 0.000897 -0.00115 2.628392 2.703227 5.472645 -0.043307 -0.215011 4.470369 -2.248267 1.066162 -4.809056 1.63864 -2.069745 -0.300484 -0.000142 0.000852 0.003359 -2.151421 -1.304354 5.776335 -0.006046 0.024432 3.552353 4.77961 0.736815 -4.151817 -1.441974 0.990382 -0.018421 0.000148 8e-05 0.002395 
